<svg width="32" height="32" viewBox="0 0 32 32" fill="none" xmlns="http://www.w3.org/2000/svg">
<path d="M15.9993 27.3327C18.4123 27.3327 20.7262 27.0943 22.8706 26.6572C25.5491 26.1112 26.8884 25.8381 28.1106 24.2668C29.3327 22.6955 29.3327 20.8917 29.3327 17.284V14.7147C29.3327 11.107 29.3327 9.30318 28.1106 7.73184C26.8884 6.16052 25.5491 5.88752 22.8706 5.34151C20.7262 4.90438 18.4123 4.66602 15.9993 4.66602C13.5864 4.66602 11.2725 4.90438 9.1281 5.34151C6.44956 5.88752 5.1103 6.16052 3.88815 7.73184C2.66602 9.30318 2.66602 11.107 2.66602 14.7147V17.284C2.66602 20.8917 2.66602 22.6955 3.88815 24.2668C5.1103 25.8381 6.44956 26.1112 9.1281 26.6572C11.2725 27.0943 13.5864 27.3327 15.9993 27.3327Z" stroke="#D70C18" stroke-width="2"/>
<path d="M21.2828 16.4178C21.0849 17.2256 20.0321 17.8057 17.9265 18.9661C15.6363 20.228 14.4912 20.859 13.5637 20.616C13.2496 20.5336 12.9603 20.3888 12.7173 20.1924C12 19.6125 12 18.4085 12 16.0006C12 13.5928 12 12.3888 12.7173 11.8089C12.9603 11.6125 13.2496 11.4677 13.5637 11.3854C14.4912 11.1423 15.6363 11.7732 17.9265 13.0352C20.0321 14.1956 21.0849 14.7757 21.2828 15.5834C21.3501 15.8584 21.3501 16.1429 21.2828 16.4178Z" stroke="#D70C18" stroke-width="2" stroke-linejoin="round"/>
</svg>
