<svg width="40" height="40" viewBox="0 0 40 40" fill="none" xmlns="http://www.w3.org/2000/svg">
<path d="M19.9997 36.6668C29.2044 36.6668 36.6663 29.2049 36.6663 20.0002C36.6663 10.7954 29.2044 3.3335 19.9997 3.3335C10.7949 3.3335 3.33301 10.7954 3.33301 20.0002C3.33301 29.2049 10.7949 36.6668 19.9997 36.6668Z" stroke="white" stroke-width="1.5"/>
<path d="M15.833 18.6662V21.3335C15.833 23.8657 15.833 25.1317 16.5926 25.6435C17.3522 26.1552 18.391 25.589 20.4688 24.4567L22.9158 23.1228C25.4162 21.7602 26.6663 21.0788 26.6663 19.9998C26.6663 18.9208 25.4162 18.2395 22.9158 16.8768L20.4688 15.5431C18.391 14.4107 17.3522 13.8445 16.5926 14.3562C15.833 14.8679 15.833 16.134 15.833 18.6662Z" fill="white"/>
</svg>
